<svg viewBox="0 0 256 256" fill="none" xmlns="http://www.w3.org/2000/svg">
<path d="M208 112C212.244 112 216.313 110.314 219.314 107.314C222.314 104.313 224 100.243 224 96V48C224 43.7565 222.314 39.6869 219.314 36.6863C216.313 33.6857 212.244 32 208 32H160C155.757 32 151.687 33.6857 148.686 36.6863C145.686 39.6869 144 43.7565 144 48V96C144 100.243 145.686 104.313 148.686 107.314C151.687 110.314 155.757 112 160 112H176V144.8C168.313 146.368 161.257 150.161 155.709 155.709C150.162 161.256 146.368 168.313 144.8 176H112V160C112 155.757 110.314 151.687 107.314 148.686C104.313 145.686 100.244 144 96.0001 144H80.0001V111.2C89.7124 109.217 98.3427 103.699 104.218 95.7153C110.093 87.7313 112.794 77.8502 111.798 67.9878C110.801 58.1254 106.178 48.9842 98.8253 42.3365C91.4722 35.6888 81.9127 32.0082 72.0001 32.0082C62.0875 32.0082 52.528 35.6888 45.1749 42.3365C37.8218 48.9842 33.199 58.1254 32.2026 67.9878C31.2063 77.8502 33.9075 87.7313 39.7825 95.7153C45.6575 103.699 54.2878 109.217 64.0001 111.2V144H48.0001C43.7566 144 39.687 145.686 36.6864 148.686C33.6858 151.687 32.0001 155.757 32.0001 160V208C32.0001 212.243 33.6858 216.313 36.6864 219.314C39.687 222.314 43.7566 224 48.0001 224H96.0001C100.244 224 104.313 222.314 107.314 219.314C110.314 216.313 112 212.243 112 208V192H144.8C146.247 199.079 149.585 205.634 154.458 210.969C159.332 216.304 165.559 220.219 172.479 222.298C179.399 224.377 186.753 224.543 193.76 222.778C200.767 221.013 207.165 217.383 212.274 212.274C217.383 207.165 221.013 200.767 222.778 193.76C224.543 186.753 224.377 179.399 222.298 172.479C220.219 165.559 216.304 159.332 210.969 154.458C205.635 149.585 199.079 146.247 192 144.8V112H208ZM48.0001 72C48.0001 67.2532 49.4077 62.6131 52.0448 58.6663C54.682 54.7195 58.4303 51.6434 62.8157 49.8269C67.2011 48.0104 72.0267 47.5351 76.6823 48.4612C81.3378 49.3872 85.6142 51.673 88.9707 55.0294C92.3271 58.3859 94.6129 62.6623 95.5389 67.3178C96.465 71.9734 95.9897 76.799 94.1732 81.1844C92.3567 85.5698 89.2806 89.3181 85.3338 91.9553C81.387 94.5924 76.7468 96 72.0001 96C65.6349 96 59.5304 93.4714 55.0295 88.9706C50.5287 84.4697 48.0001 78.3652 48.0001 72ZM96.0001 208H48.0001V160H96.0001V208ZM208 184C208 188.747 206.593 193.387 203.955 197.334C201.318 201.28 197.57 204.357 193.184 206.173C188.799 207.99 183.973 208.465 179.318 207.539C174.662 206.613 170.386 204.327 167.03 200.971C163.673 197.614 161.387 193.338 160.461 188.682C159.535 184.027 160.01 179.201 161.827 174.816C163.643 170.43 166.72 166.682 170.666 164.045C174.613 161.408 179.253 160 184 160C190.365 160 196.47 162.529 200.971 167.029C205.472 171.53 208 177.635 208 184ZM160 48H208V96H160V48Z" fill="currentColor"/>
</svg>
